<svg xmlns="http://www.w3.org/2000/svg" version="1.1" viewBox="7.28 7.34 130.04 131.98">
  <!-- svg-source:excalidraw -->
  <g stroke-linecap="round" transform="translate(10 10) rotate(0 60.97587628850678 60.975876288506754)"><path d="M0 0 C0 0, 0 0, 0 0 M0 0 C0 0, 0 0, 0 0 M1.54 12.2 C3.82 8.68, 4.14 6.37, 11.26 -0.72 M-0.33 11.91 C2.13 9.27, 5.01 5.94, 10.9 0.58 M-1.13 24.52 C7.96 14.08, 17.01 3.95, 22.73 -0.53 M0.98 23.29 C5.86 18.25, 11.54 11.46, 21.72 -0.33 M-2.05 36.78 C7.02 27.32, 15.77 18.77, 33.18 1.21 M0.63 36.95 C7.67 27.25, 17.15 16.16, 32.22 -0.94 M-0.72 50.25 C14.46 32.52, 28.98 15.08, 42.51 -1.61 M-1.09 49.25 C11.27 35.78, 22.98 21.13, 42.08 -0.51 M1.3 59.69 C20.17 38.23, 40.61 14.97, 54.4 -0.34 M0.96 61.69 C12.92 47.65, 24.9 31.39, 52.25 0.16 M-0.49 73.16 C13.75 57.08, 24.43 43.88, 62.64 0.99 M-0.28 73.88 C15.77 52.87, 33.63 32.67, 64.46 0.01 M0.01 85.56 C23.95 58.08, 46.74 33.43, 75.29 0.54 M0.61 85.44 C23.2 59.34, 44.74 34.65, 73.64 -0.15 M-0.95 98.23 C24.54 70.08, 46.37 44.59, 84.91 -0.53 M-0.63 98.82 C27.12 67.66, 53.55 35.63, 85.28 -0.63 M-0.17 108.73 C28.92 77.3, 54.42 44.23, 96.74 0.72 M0.02 109.4 C26.65 80.44, 52.18 50.58, 95.88 -0.68 M0.76 122.18 C29.47 87.58, 60.4 51.71, 106.86 -2.16 M-0.64 122.08 C31.54 84.92, 63.34 50.07, 106.34 0.55 M6.14 126.27 C40.98 87.29, 75.54 48.61, 117.74 -1.41 M6.9 126.59 C50.25 79.45, 93.18 30.33, 115.69 0.89 M16.63 125.91 C52.02 87.53, 89.58 42.69, 125.09 0.91 M17.49 127.4 C43.19 97.08, 69.2 67.47, 125.2 3.44 M27.33 127.53 C55.81 95.16, 84.62 63.86, 123.48 15.4 M26.66 126.35 C62.15 86.99, 98.76 47.75, 124.18 14.28 M39.84 128.82 C67.92 94.08, 97.97 58.28, 126.82 28.36 M38.9 127.59 C59.02 104.83, 77.83 80.01, 125.72 25.85 M47.88 128.82 C64.71 104.79, 86.66 85.96, 123.65 41.35 M48.49 126.07 C69.84 104.03, 90.68 79.09, 124.14 39.75 M57.48 126.75 C84.93 99.98, 106.81 70.97, 126.44 51.14 M59.86 127.52 C76.27 109.31, 90.77 90.24, 125.58 50.99 M69.11 126.84 C79.61 113.49, 91.12 101.2, 123.88 65.09 M69.05 127.63 C87.72 106.38, 105.88 87.47, 124.46 62.61 M81.96 125.09 C95.97 109.55, 109.22 96.92, 125.66 74.89 M80.09 126.11 C95.28 109.61, 109.41 92.56, 125.47 75.78 M92.04 126.11 C100.66 116.51, 110.99 102.81, 126.02 88.16 M90.4 127.78 C99.49 116.69, 108.82 105.58, 125.4 88.6 M100.42 125.96 C105.35 120.64, 113.51 116.4, 125.28 102.02 M101.22 126.68 C107.29 119.68, 113.65 114.16, 123.83 100.01 M111.44 125.01 C117.31 119.29, 121.68 114.83, 124.65 110.94 M112.96 127.12 C116.23 121.35, 120.76 116.53, 124.2 112.8" stroke="#f50400" stroke-width="1" fill="none"/><path d="M-0.28 -1.4 C40.72 -0.32, 83.74 1.58, 121.71 1.09 M0.62 0.34 C32.38 -1.16, 63.65 -1.44, 122.9 0.77 M120.49 -0.16 C121.36 40.44, 121.34 75.28, 122.96 123.4 M121.35 -0.42 C122.94 45.39, 122.95 89.44, 122.67 121.69 M120.73 122.53 C82.55 123.73, 41.14 123.53, 0.86 120.54 M122.01 121.41 C75.5 120.99, 30.1 121.55, -0.41 121.75 M-1.04 121.54 C1.06 94.16, -0.22 68.26, -1.72 0.03 M-0.77 122.25 C-1.53 79.94, -1.54 36.88, 0.4 -0.34" stroke="transparent" stroke-width="2" fill="none"/></g></svg>