<svg xmlns="http://www.w3.org/2000/svg" version="1.1" viewBox="8.15 9.02 46.02 45.32">
  <!-- svg-source:excalidraw -->
  <g stroke-linecap="round" transform="translate(10 10) rotate(0 21.599827938544877 21.599827938544877)"><path d="M20.68 -0.92 C24.82 -1.45, 31.07 1.46, 34.74 4.5 C38.4 7.54, 41.7 12.8, 42.69 17.33 C43.67 21.87, 42.82 27.77, 40.66 31.7 C38.49 35.64, 34.24 39.38, 29.68 40.96 C25.12 42.55, 17.88 42.59, 13.3 41.22 C8.72 39.84, 4.22 36.55, 2.22 32.74 C0.21 28.93, 0.29 23.03, 1.26 18.35 C2.23 13.67, 3.62 7.73, 8.04 4.66 C12.46 1.58, 23.82 0.14, 27.81 -0.12 C31.8 -0.38, 32.14 2.54, 31.97 3.08 M29.04 2.52 C33.03 3.57, 37.96 5.87, 40.39 9.92 C42.82 13.96, 44.19 21.9, 43.61 26.78 C43.04 31.65, 40.7 36.6, 36.93 39.16 C33.15 41.71, 25.76 42.52, 20.97 42.11 C16.18 41.7, 11.8 39.24, 8.21 36.68 C4.62 34.13, 0.19 31.35, -0.57 26.79 C-1.32 22.22, 1.39 13.76, 3.68 9.29 C5.97 4.82, 8.81 1.43, 13.19 -0.04 C17.57 -1.5, 27.11 0.32, 29.97 0.52 C32.83 0.73, 30.7 0.53, 30.35 1.18" stroke="none" stroke-width="0" fill="#fcfcfc"/><path d="M12.86 1.25 C16.85 -0.95, 23.48 -0.62, 28.05 0.63 C32.63 1.87, 37.96 4.87, 40.31 8.73 C42.66 12.59, 42.9 18.95, 42.17 23.78 C41.43 28.62, 39.17 34.42, 35.9 37.76 C32.62 41.1, 26.91 43.69, 22.52 43.83 C18.13 43.97, 13.27 41.27, 9.56 38.62 C5.86 35.98, 1.6 32.17, 0.29 27.95 C-1.01 23.73, -0.59 17.79, 1.74 13.29 C4.07 8.78, 12.11 2.9, 14.27 0.91 C16.44 -1.07, 14.62 1.02, 14.71 1.4 M14.51 2.3 C18.67 0.44, 24.27 0.25, 28.45 1.67 C32.64 3.1, 37.08 6.76, 39.6 10.85 C42.11 14.94, 44.25 21.79, 43.54 26.21 C42.83 30.64, 39.08 34.65, 35.33 37.4 C31.59 40.16, 25.66 42.51, 21.04 42.72 C16.43 42.93, 11.32 41.74, 7.63 38.65 C3.94 35.56, -0.16 28.89, -1.09 24.21 C-2.02 19.52, -0.28 14.51, 2.07 10.53 C4.43 6.55, 10.89 1.78, 13.04 0.31 C15.19 -1.16, 14.56 1.39, 14.98 1.71" stroke="#050505" stroke-width="3" fill="none"/></g></svg>