<svg xmlns="http://www.w3.org/2000/svg" version="1.1" viewBox="9.06 8.8 30.22 30.73">
  <g stroke-linecap="round" transform="translate(9.999999999999943 10) rotate(0 14.04516417951632 14.045164179516291)"><path d="M20.21 0.93 C23.05 2.24, 26.54 5.96, 27.71 8.89 C28.87 11.81, 28.25 15.75, 27.19 18.46 C26.13 21.17, 23.82 23.47, 21.37 25.15 C18.92 26.83, 15.54 28.65, 12.5 28.56 C9.46 28.47, 5.36 26.79, 3.14 24.61 C0.92 22.43, -0.62 18.71, -0.8 15.49 C-0.99 12.27, 0.13 7.96, 2.03 5.29 C3.94 2.62, 7.39 0, 10.63 -0.54 C13.87 -1.07, 19.51 1.42, 21.48 2.06 C23.46 2.71, 22.56 3.28, 22.49 3.34 M18.17 -0.26 C21.32 0.28, 24.56 3.89, 26.01 6.36 C27.46 8.84, 27.12 11.85, 26.86 14.58 C26.6 17.32, 26.32 20.3, 24.45 22.78 C22.59 25.25, 18.58 28.87, 15.66 29.43 C12.75 30, 9.36 28.03, 6.95 26.15 C4.54 24.27, 2.21 21.03, 1.18 18.16 C0.16 15.3, -0.21 11.46, 0.8 8.95 C1.8 6.44, 4.5 4.38, 7.21 3.11 C9.93 1.84, 15.58 1.6, 17.09 1.35 C18.6 1.09, 16.34 1.64, 16.26 1.58" stroke="none" stroke-width="0" fill="#fcfcfc"/><path d="M13.69 -0.69 C16.46 -0.84, 20.56 1.35, 23.06 3.33 C25.56 5.3, 28.17 8.22, 28.68 11.16 C29.19 14.1, 27.63 18.42, 26.13 20.97 C24.64 23.51, 22.37 25.37, 19.7 26.41 C17.02 27.45, 13.04 27.93, 10.1 27.18 C7.15 26.43, 3.69 24.32, 2 21.92 C0.32 19.52, -0.32 15.83, -0.03 12.79 C0.27 9.74, 1.15 5.69, 3.78 3.65 C6.42 1.61, 13.71 1.01, 15.8 0.55 C17.88 0.09, 16.43 0.78, 16.32 0.89 M19.54 0.31 C22.16 1.46, 24.53 6.02, 25.66 8.98 C26.78 11.93, 26.86 15.07, 26.3 18.02 C25.73 20.98, 24.7 25.07, 22.29 26.69 C19.88 28.32, 14.98 28.17, 11.84 27.78 C8.7 27.39, 5.49 26.69, 3.44 24.37 C1.4 22.06, -0.36 17.09, -0.44 13.9 C-0.53 10.7, 1.12 7.49, 2.94 5.22 C4.75 2.96, 7.79 0.97, 10.47 0.29 C13.14 -0.39, 17.24 1.1, 18.99 1.15 C20.74 1.2, 20.84 0.17, 20.96 0.61" stroke="#050505" stroke-width="1" fill="none"/></g></svg>