<svg xmlns="http://www.w3.org/2000/svg" version="1.1" viewBox="7.98 7.01 71.97 72.86">
  <!-- svg-source:excalidraw -->
  <g stroke-linecap="round" transform="translate(10 10) rotate(0 34.03265295874189 34.03265295874212)"><path d="M-1.35 0.27 L68.91 -1.58 L68.2 67.1 L0.18 69.26" stroke="none" stroke-width="0" fill="#00000000"/><path d="M1.96 1.67 C26.89 -0.52, 54.6 1.87, 66.82 1.07 M0.31 -0.34 C21.61 -0.35, 44.18 1.23, 67.26 -0.18 M68.55 1.42 C65.94 25.7, 68.9 51.98, 66.69 68.3 M68.2 -1 C67.61 26.51, 67.39 53.77, 68.95 68.43 M68.63 67.63 C53.44 68.09, 38.28 67.62, 1.5 66.63 M67.82 68.87 C44.35 67.96, 19.18 68.33, -0.25 67.4 M0.2 68.16 C-1.59 49.75, -1.68 32.96, 1.82 -1.99 M-0.76 68.11 C0.18 49.88, 0.3 30.1, 0.12 -0.01" stroke="#000000" stroke-width="2" fill="none"/></g></svg>